<?xml version="1.0" standalone="no"?>
<!DOCTYPE svg PUBLIC "-//W3C//DTD SVG 20010904//EN"
 "http://www.w3.org/TR/2001/REC-SVG-20010904/DTD/svg10.dtd">
<svg version="1.0" xmlns="http://www.w3.org/2000/svg"
 width="5801.000000pt" height="5801.000000pt" viewBox="0 0 5801.000000 5801.000000"
 preserveAspectRatio="xMidYMid meet">
<metadata>
Created by potrace 1.14, written by Peter Selinger 2001-2017
</metadata>
<g transform="translate(0.000000,5801.000000) scale(0.100000,-0.100000)"
fill="#000000" stroke="none">
<path d="M18180 57983 c-43 -3 -198 -18 -290 -29 -38 -5 -116 -17 -245 -39
-158 -28 -555 -134 -650 -175 -11 -5 -85 -34 -165 -66 -904 -357 -1691 -1045
-2179 -1904 -33 -56 -184 -361 -206 -415 -7 -16 -18 -41 -24 -55 -49 -113
-120 -318 -180 -523 -19 -63 -63 -254 -75 -322 -3 -16 -8 -41 -11 -55 -11 -53
-31 -192 -40 -270 -3 -30 -8 -71 -10 -90 -3 -19 -8 -98 -12 -175 -9 -184 -9
-49567 0 -49750 4 -77 9 -149 11 -160 2 -11 7 -49 10 -85 8 -73 10 -86 25
-185 20 -127 44 -244 77 -374 13 -53 26 -103 28 -112 26 -105 138 -425 193
-549 138 -307 312 -615 477 -840 40 -54 185 -240 196 -250 3 -3 32 -36 65 -75
75 -87 285 -298 386 -388 420 -373 933 -673 1467 -858 97 -33 283 -90 342
-104 139 -33 288 -63 390 -80 75 -12 87 -14 135 -20 28 -3 66 -7 85 -10 19 -2
76 -8 125 -12 118 -10 21706 -10 21810 0 44 4 91 9 105 12 14 2 50 6 81 10 31
3 65 7 75 9 11 2 39 7 64 10 66 9 99 16 360 71 47 10 336 98 381 116 30 11 61
22 70 24 25 5 235 92 324 134 44 21 98 47 120 57 39 18 243 130 296 163 14 9
48 29 75 45 134 81 358 245 517 379 485 408 911 981 1176 1585 82 187 211 568
235 696 2 12 12 53 21 91 24 104 48 231 61 330 3 28 8 59 10 70 2 10 6 51 10
90 3 38 8 78 10 88 2 10 6 94 10 185 9 223 9 49422 0 49627 -4 88 -9 174 -11
190 -3 17 -7 62 -10 100 -3 39 -7 81 -10 95 -3 14 -7 39 -9 55 -19 127 -41
246 -71 375 -71 309 -180 610 -335 925 -107 219 -285 522 -312 533 -4 2 -8 8
-8 13 0 6 -13 27 -28 47 -16 20 -55 73 -88 117 -64 86 -68 91 -170 210 -310
364 -683 675 -1110 927 -125 74 -394 210 -499 252 -38 16 -81 33 -95 39 -14 6
-27 11 -30 12 -3 1 -16 6 -30 12 -111 46 -517 166 -635 187 -16 3 -51 10 -79
15 -111 23 -269 46 -376 56 -36 4 -76 10 -90 13 -24 7 -21651 12 -21740 5z"/>
</g>
</svg>
